<?xml version="1.0" encoding="UTF-8" standalone="no"?>
<svg
   xmlns:dc="http://purl.org/dc/elements/1.1/"
   xmlns:cc="http://creativecommons.org/ns#"
   xmlns:rdf="http://www.w3.org/1999/02/22-rdf-syntax-ns#"
   xmlns:svg="http://www.w3.org/2000/svg"
   xmlns="http://www.w3.org/2000/svg"
   viewBox="0 0 689.98749 206.64999"
   height="206.64999"
   width="689.98749"
   xml:space="preserve"
   version="1.1"
   id="svg2"><metadata
     id="metadata8"><rdf:RDF><cc:Work
         rdf:about=""><dc:format>image/svg+xml</dc:format><dc:type
           rdf:resource="http://purl.org/dc/dcmitype/StillImage" /></cc:Work></rdf:RDF></metadata><defs
     id="defs6"><clipPath
       id="clipPath18"
       clipPathUnits="userSpaceOnUse"><path
         id="path20"
         d="m 0,0 5519.91,0 0,1653 L 0,1653 0,0 Z" /></clipPath></defs><g
     transform="matrix(1.25,0,0,-1.25,0,206.65)"
     id="g10"><g
       transform="scale(0.1,0.1)"
       id="g12"><g
         id="g14"><g
           clip-path="url(#clipPath18)"
           id="g16"><path
             id="path22"
             style="fill:#c2bfbc;fill-opacity:1;fill-rule:nonzero;stroke:none"
             d="m 396.859,1250.84 c -130.558,0 -345.3199,-34.38 -345.3199,-34.38 l 6.8672,-140.88 c 0,0 202.7107,20.57 329.8557,20.57 80.777,0 127.16,-42.95 127.16,-130.533 l 0,-61.871 -240.535,-20.621 C 92.75,867.668 0,800.637 0,625.41 0,455.328 85.8984,355.629 240.551,355.629 c 149.461,0 298.926,63.601 298.926,63.601 35.921,-32.058 72.812,-50.71 139.214,-58.109 l 0,606.195 c 0,202.754 -97.972,283.524 -281.832,283.524 M 515.422,539.531 c 0,0 -135.742,-43 -245.692,-43 -67.031,0 -104.808,46.418 -104.808,132.321 0,80.746 39.547,123.703 128.867,130.582 l 221.633,17.164 0,-237.067" /><path
             id="path24"
             style="fill:#c2bfbc;fill-opacity:1;fill-rule:nonzero;stroke:none"
             d="m 829.465,1231.89 161.515,0 0,-51.53 c 0,0 121.96,70.48 235.36,70.48 219.93,0 321.28,-122.04 321.28,-438.164 0,-347.067 -116.78,-457.028 -379.68,-457.028 -75.6,0 -161.53,15.461 -176.96,18.922 l 0,-374.57 -161.515,0 0,1231.89 z m 161.515,-185.53 0,-529.2 c 15.43,-1.711 99.64,-13.738 166.65,-13.738 170.08,0 223.34,84.168 223.34,310.973 0,214.795 -66.99,288.645 -182.1,288.645 -92.78,0 -207.89,-56.68 -207.89,-56.68" /><path
             id="path26"
             style="fill:#c2bfbc;fill-opacity:1;fill-rule:nonzero;stroke:none"
             d="m 2347.58,520.59 3.38,-128.86 c 0,0 -195.84,-36.089 -341.88,-36.089 -257.75,1.73 -350.52,144.328 -350.52,441.601 0,319.548 137.46,453.588 365.94,453.588 237.16,0 355.66,-122.02 355.66,-396.896 l -10.28,-118.571 -546.36,0 c 0,-154.644 54.98,-230.222 207.84,-230.222 132.34,0 316.22,15.449 316.22,15.449 m -128.91,341.922 c 0,178.688 -56.7,243.988 -194.17,243.988 -133.99,0 -200.98,-70.46 -202.71,-243.988 l 396.88,0" /><path
             id="path28"
             style="fill:#c2bfbc;fill-opacity:1;fill-rule:nonzero;stroke:none"
             d="m 2516.71,1231.89 161.53,0 0,-101.35 c 0,0 14.35,101.35 280.05,101.35 l 0,-146 c -171.15,20.97 -280.05,-70.84 -280.05,-70.84 l 0,-640.48 -161.53,0 0,857.32" /><path
             id="path30"
             style="fill:#c2bfbc;fill-opacity:1;fill-rule:nonzero;stroke:none"
             d="m 3335.51,1085.89 0,-374.574 c 0,-154.644 8.62,-202.757 106.54,-202.757 48.08,0 146.04,8.601 146.04,8.601 l 8.62,-140.859 c 0,0 -115.12,-20.66 -175.28,-20.66 -187.28,0 -247.39,70.449 -247.39,317.871 l 0,412.378 -115.14,0 0,146 115.14,0 0,257.75 161.47,0 0,-257.75 252.58,0 0,-146 -252.58,0" /><path
             id="path32"
             style="fill:#c2bfbc;fill-opacity:1;fill-rule:nonzero;stroke:none"
             d="m 4392.34,1231.89 0,-857.32 c -95.66,0 -117.88,49.789 -117.88,49.789 0,0 -179.35,-68.711 -285.9,-68.711 -243.98,0 -293.78,120.274 -293.78,429.559 l 0,446.683 163.2,0 0,-444.984 c 0,-209.597 15.49,-283.484 159.8,-283.484 96.24,0 211.34,51.539 211.34,51.539 l 0,676.929 163.22,0" /><path
             id="path34"
             style="fill:#c2bfbc;fill-opacity:1;fill-rule:nonzero;stroke:none"
             d="m 5128.65,1077.28 c 0,0 -197.56,27.5 -304.11,27.5 -103.08,0 -164.93,-25.78 -164.93,-109.964 0,-65.308 39.51,-84.199 195.88,-109.961 226.8,-36.07 304.14,-87.617 304.14,-256.003 0,-201.024 -128.86,-273.211 -338.52,-273.211 -115.11,0 -311,36.089 -311,36.089 l 6.9,139.168 c 0,0 202.71,-27.476 290.36,-27.476 130.61,0 188.98,27.476 188.98,120.269 0,72.137 -36.08,89.352 -188.98,113.395 -214.8,36.078 -311.02,79.039 -311.02,254.293 0,192.441 154.68,259.461 317.88,259.461 127.13,0 317.87,-36.1 317.87,-36.1 l -3.45,-137.46" /><path
             id="path36"
             style="fill:#f47248;fill-opacity:1;fill-rule:nonzero;stroke:none"
             d="m 5357.26,1573.61 c 45.8,0 83.08,-37.26 83.08,-83.06 0,-45.8 -37.28,-83.06 -83.08,-83.06 -45.79,0 -83.05,37.26 -83.05,83.06 0,45.8 37.26,83.06 83.05,83.06 m 0,79.58 c -89.82,0 -162.63,-72.82 -162.63,-162.64 0,-89.82 72.81,-162.64 162.63,-162.64 89.84,0 162.65,72.82 162.65,162.64 0,89.82 -72.81,162.64 -162.65,162.64" /></g></g></g></g></svg>