<svg width="374" height="378" viewBox="0 0 374 378" fill="none" xmlns="http://www.w3.org/2000/svg">
<g clip-path="url(#clip0)">
<path d="M330.172 378H43.8281C19.6599 378 0 358.13 0 333.703V44.2969C0 19.8701 19.6599 0 43.8281 0H330.172C354.34 0 374 19.8701 374 44.2969V333.703C374 358.13 354.34 378 330.172 378ZM43.8281 29.5312C35.773 29.5312 29.2188 36.1556 29.2188 44.2969V333.703C29.2188 341.844 35.773 348.469 43.8281 348.469H330.172C338.227 348.469 344.781 341.844 344.781 333.703V44.2969C344.781 36.1556 338.227 29.5312 330.172 29.5312H43.8281ZM237 524L254 472L180 444H112L62 488L104 530L237 524Z" fill="black"/>
</g>
<defs>
<clipPath id="clip0">
<rect width="374" height="378" fill="white"/>
</clipPath>
</defs>
</svg>
