<svg height="512pt" viewBox="-78 0 512 512" width="512pt" xmlns="http://www.w3.org/2000/svg"><path d="m325.78125 57.871094h-54.828125v-2.871094c0-30.328125-24.671875-55-55-55h-76.125c-30.328125 0-55 24.671875-55 55v2.871094h-54.828125c-16.566406 0-30 13.429687-30 30v22.867187c0 5.523438 4.476562 10 10 10h335.78125c5.523438 0 10-4.476562 10-10v-22.867187c0-16.570313-13.429688-30-30-30zm-210.953125-2.871094c0-13.785156 11.214844-25 25-25h76.125c13.785156 0 25 11.214844 25 25v2.871094h-126.125zm0 0"/><path d="m12.949219 150.738281 24.238281 347.304688c.550781 7.859375 7.085938 13.957031 14.964844 13.957031h251.480468c7.878907 0 14.414063-6.097656 14.960938-13.957031l24.234375-347.304688zm105.578125 310.246094c-.214844.011719-.433594.015625-.648438.015625-7.988281 0-14.632812-6.304688-14.972656-14.363281l-10-235c-.355469-8.277344 6.070312-15.273438 14.347656-15.625 8.28125-.339844 15.273438 6.074219 15.625 14.351562l10 235c.351563 8.277344-6.074218 15.269531-14.351562 15.621094zm74.363281-14.984375c0 8.285156-6.714844 15-15 15s-15-6.714844-15-15v-235c0-8.285156 6.714844-15 15-15s15 6.714844 15 15zm59.988281.636719c-.34375 8.0625-6.988281 14.363281-14.976562 14.363281-.214844 0-.433594-.003906-.648438-.011719-8.277344-.351562-14.703125-7.347656-14.351562-15.625l10-235c.355468-8.277343 7.359375-14.699219 15.625-14.347656 8.277344.351563 14.703125 7.34375 14.351562 15.621094zm0 0"/></svg>