#define monoRingLogo_width 14
#define monoRingLogo_height 14
static char monoRingLogo_bits[] = {
  0xF0, 0x03, 0xF8, 0x07, 0xFC, 0x0F, 0xBE, 0x1F, 0x1E, 0x1C, 0x0F, 0x3C, 
  0x0F, 0x3C, 0x07, 0x38, 0x0F, 0x3C, 0x1E, 0x3C, 0xBE, 0x1F, 0xFC, 0x0F, 
  0xF8, 0x07, 0xE0, 0x03, };
