<svg version="1.1" viewBox="0.0 0.0 1024.0 768.0" fill="none" stroke="none" stroke-linecap="square" stroke-miterlimit="10" xmlns:xlink="http://www.w3.org/1999/xlink" xmlns="http://www.w3.org/2000/svg"><clipPath id="p.0"><path d="m0 0l1024.0 0l0 768.0l-1024.0 0l0 -768.0z" clip-rule="nonzero"/></clipPath><g clip-path="url(#p.0)"><path fill="#000000" fill-opacity="0.0" d="m0 0l1024.0 0l0 768.0l-1024.0 0z" fill-rule="evenodd"/><path fill="#ffffff" d="m148.28084 111.46982l693.3544 0l0 488.81888l-693.3544 0z" fill-rule="evenodd"/><path stroke="#000000" stroke-width="1.0" stroke-linejoin="round" stroke-linecap="butt" d="m148.28084 111.46982l693.3544 0l0 488.81888l-693.3544 0z" fill-rule="evenodd"/><path fill="#fff2cc" d="m214.45407 54.202263l0 0c0 -4.5198364 3.6640472 -8.183891 8.183884 -8.183891l80.79759 0c2.1705017 0 4.2521057 0.8622284 5.786865 2.397007c1.53479 1.5347786 2.3970032 3.6163826 2.3970032 5.7868843l0 32.73458c0 4.5198364 -3.664032 8.183891 -8.183868 8.183891l-80.79759 0c-4.5198364 0 -8.183884 -3.6640549 -8.183884 -8.183891z" fill-rule="evenodd"/><path stroke="#000000" stroke-width="1.0" stroke-linejoin="round" stroke-linecap="butt" d="m214.45407 54.202263l0 0c0 -4.5198364 3.6640472 -8.183891 8.183884 -8.183891l80.79759 0c2.1705017 0 4.2521057 0.8622284 5.786865 2.397007c1.53479 1.5347786 2.3970032 3.6163826 2.3970032 5.7868843l0 32.73458c0 4.5198364 -3.664032 8.183891 -8.183868 8.183891l-80.79759 0c-4.5198364 0 -8.183884 -3.6640549 -8.183884 -8.183891z" fill-rule="evenodd"/><path fill="#fff2cc" d="m441.5309 53.182236l0 0c-0.00289917 -4.5198364 3.658783 -8.183891 8.17865 -8.183891l80.79758 0c2.1704712 0 4.2526245 0.8622284 5.788391 2.397007c1.5357666 1.5347786 2.399353 3.6163826 2.4007568 5.7868843l0.020996094 32.73458c0.0028686523 4.5198364 -3.6588135 8.183891 -8.17865 8.183891l-80.79758 0c-4.5198364 0 -8.186249 -3.6640549 -8.189148 -8.183891z" fill-rule="evenodd"/><path stroke="#000000" stroke-width="1.0" stroke-linejoin="round" stroke-linecap="butt" d="m441.5309 53.182236l0 0c-0.00289917 -4.5198364 3.658783 -8.183891 8.17865 -8.183891l80.79758 0c2.1704712 0 4.2526245 0.8622284 5.788391 2.397007c1.5357666 1.5347786 2.399353 3.6163826 2.4007568 5.7868843l0.020996094 32.73458c0.0028686523 4.5198364 -3.6588135 8.183891 -8.17865 8.183891l-80.79758 0c-4.5198364 0 -8.186249 -3.6640549 -8.189148 -8.183891z" fill-rule="evenodd"/><path fill="#fff2cc" d="m670.45404 54.202263l0 0c0 -4.5198364 3.6640625 -8.183891 8.183899 -8.183891l80.79761 0c2.1704712 0 4.252075 0.8622284 5.786865 2.397007c1.53479 1.5347786 2.3970337 3.6163826 2.3970337 5.7868843l0 32.73458c0 4.5198364 -3.6640625 8.183891 -8.183899 8.183891l-80.79761 0c-4.5198364 0 -8.183899 -3.6640549 -8.183899 -8.183891z" fill-rule="evenodd"/><path stroke="#000000" stroke-width="1.0" stroke-linejoin="round" stroke-linecap="butt" d="m670.45404 54.202263l0 0c0 -4.5198364 3.6640625 -8.183891 8.183899 -8.183891l80.79761 0c2.1704712 0 4.252075 0.8622284 5.786865 2.397007c1.53479 1.5347786 2.3970337 3.6163826 2.3970337 5.7868843l0 32.73458c0 4.5198364 -3.6640625 8.183891 -8.183899 8.183891l-80.79761 0c-4.5198364 0 -8.183899 -3.6640549 -8.183899 -8.183891z" fill-rule="evenodd"/><path fill="#fff2cc" d="m214.45407 630.2023l0 0c0 -4.5198364 3.6640472 -8.183899 8.183884 -8.183899l80.79759 0c2.1705017 0 4.2521057 0.86224365 5.786865 2.3970337c1.53479 1.534729 2.3970032 3.616333 2.3970032 5.786865l0 32.73456c0 4.5198364 -3.664032 8.183899 -8.183868 8.183899l-80.79759 0c-4.5198364 0 -8.183884 -3.6640625 -8.183884 -8.183899z" fill-rule="evenodd"/><path stroke="#000000" stroke-width="1.0" stroke-linejoin="round" stroke-linecap="butt" d="m214.45407 630.2023l0 0c0 -4.5198364 3.6640472 -8.183899 8.183884 -8.183899l80.79759 0c2.1705017 0 4.2521057 0.86224365 5.786865 2.3970337c1.53479 1.534729 2.3970032 3.616333 2.3970032 5.786865l0 32.73456c0 4.5198364 -3.664032 8.183899 -8.183868 8.183899l-80.79759 0c-4.5198364 0 -8.183884 -3.6640625 -8.183884 -8.183899z" fill-rule="evenodd"/><path fill="#fff2cc" d="m441.5309 629.18225l0 0c-0.00289917 -4.5198364 3.658783 -8.183899 8.17865 -8.183899l80.79758 0c2.1704712 0 4.2526245 0.86224365 5.788391 2.3969727c1.5357666 1.53479 2.399353 3.616394 2.4007568 5.7869263l0.020996094 32.73456c0.0028686523 4.5198364 -3.6588135 8.183899 -8.17865 8.183899l-80.79758 0c-4.5198364 0 -8.186249 -3.6640625 -8.189148 -8.183899z" fill-rule="evenodd"/><path stroke="#000000" stroke-width="1.0" stroke-linejoin="round" stroke-linecap="butt" d="m441.5309 629.18225l0 0c-0.00289917 -4.5198364 3.658783 -8.183899 8.17865 -8.183899l80.79758 0c2.1704712 0 4.2526245 0.86224365 5.788391 2.3969727c1.5357666 1.53479 2.399353 3.616394 2.4007568 5.7869263l0.020996094 32.73456c0.0028686523 4.5198364 -3.6588135 8.183899 -8.17865 8.183899l-80.79758 0c-4.5198364 0 -8.186249 -3.6640625 -8.189148 -8.183899z" fill-rule="evenodd"/><path fill="#fff2cc" d="m670.45404 630.2023l0 0c0 -4.5198364 3.6640625 -8.183899 8.183899 -8.183899l80.79761 0c2.1704712 0 4.252075 0.86224365 5.786865 2.3970337c1.53479 1.534729 2.3970337 3.616333 2.3970337 5.786865l0 32.73456c0 4.5198364 -3.6640625 8.183899 -8.183899 8.183899l-80.79761 0c-4.5198364 0 -8.183899 -3.6640625 -8.183899 -8.183899z" fill-rule="evenodd"/><path stroke="#000000" stroke-width="1.0" stroke-linejoin="round" stroke-linecap="butt" d="m670.45404 630.2023l0 0c0 -4.5198364 3.6640625 -8.183899 8.183899 -8.183899l80.79761 0c2.1704712 0 4.252075 0.86224365 5.786865 2.3970337c1.53479 1.534729 2.3970337 3.616333 2.3970337 5.786865l0 32.73456c0 4.5198364 -3.6640625 8.183899 -8.183899 8.183899l-80.79761 0c-4.5198364 0 -8.183899 -3.6640625 -8.183899 -8.183899z" fill-rule="evenodd"/><path fill="#cfe2f3" d="m152.50671 115.123566l686.04724 0l0 480.56693l-686.04724 0z" fill-rule="evenodd"/><path stroke="#000000" stroke-width="2.0" stroke-linejoin="round" stroke-linecap="butt" d="m152.50671 115.123566l686.04724 0l0 480.56693l-686.04724 0z" fill-rule="evenodd"/><path fill="#d9ead3" fill-opacity="0.3911" d="m158.32545 120.997375l675.1181 0l0.03149414 64.44095l-675.1181 0z" fill-rule="evenodd"/><path stroke="#000000" stroke-width="1.0" stroke-linejoin="round" stroke-linecap="butt" stroke-dasharray="4.0,3.0" d="m158.32545 120.997375l675.1181 0l0.03149414 64.44095l-675.1181 0z" fill-rule="evenodd"/><path fill="#d9ead3" fill-opacity="0.3911" d="m158.32545 525.79266l675.1181 0l0.03149414 64.44092l-675.1181 0z" fill-rule="evenodd"/><path stroke="#000000" stroke-width="1.0" stroke-linejoin="round" stroke-linecap="butt" stroke-dasharray="4.0,3.0" d="m158.32545 525.79266l675.1181 0l0.03149414 64.44092l-675.1181 0z" fill-rule="evenodd"/><path fill="#d9ead3" fill-opacity="0.3911" d="m158.32808 191.65092l69.543304 0l0 328.12598l-69.543304 0z" fill-rule="evenodd"/><path stroke="#000000" stroke-width="1.0" stroke-linejoin="round" stroke-linecap="butt" stroke-dasharray="4.0,3.0" d="m158.32808 191.65092l69.543304 0l0 328.12598l-69.543304 0z" fill-rule="evenodd"/><path fill="#d9ead3" fill-opacity="0.3911" d="m762.23883 191.65355l69.543335 0l0 328.12598l-69.543335 0z" fill-rule="evenodd"/><path stroke="#000000" stroke-width="1.0" stroke-linejoin="round" stroke-linecap="butt" stroke-dasharray="4.0,3.0" d="m762.23883 191.65355l69.543335 0l0 328.12598l-69.543335 0z" fill-rule="evenodd"/><path fill="#000000" fill-opacity="0.0" d="m408.76642 132.25722l172.91339 0l0 41.921265l-172.91339 0z" fill-rule="evenodd"/><path fill="#000000" d="m440.42755 159.17722l0 -11.78125l-4.40625 0l0 -1.578125l10.578125 0l0 1.578125l-4.40625 0l0 11.78125l-1.765625 0zm5.1082153 -4.84375q0 -2.6875 1.484375 -3.96875q1.25 -1.078125 3.046875 -1.078125q2.0 0 3.265625 1.3125q1.265625 1.296875 1.265625 3.609375q0 1.859375 -0.5625 2.9375q-0.5625 1.0625 -1.640625 1.65625q-1.0625 0.59375 -2.328125 0.59375q-2.03125 0 -3.28125 -1.296875q-1.25 -1.3125 -1.25 -3.765625zm1.6875 0q0 1.859375 0.796875 2.796875q0.8125 0.921875 2.046875 0.921875q1.21875 0 2.03125 -0.921875q0.8125 -0.9375 0.8125 -2.84375q0 -1.796875 -0.8125 -2.71875q-0.8125 -0.921875 -2.03125 -0.921875q-1.234375 0 -2.046875 0.921875q-0.796875 0.90625 -0.796875 2.765625zm9.297607 8.546875l0 -13.375l1.484375 0l0 1.25q0.53125 -0.734375 1.1875 -1.09375q0.671875 -0.375 1.625 -0.375q1.234375 0 2.171875 0.640625q0.953125 0.625 1.4375 1.796875q0.484375 1.15625 0.484375 2.546875q0 1.484375 -0.53125 2.671875q-0.53125 1.1875 -1.546875 1.828125q-1.015625 0.625 -2.140625 0.625q-0.8125 0 -1.46875 -0.34375q-0.65625 -0.34375 -1.0625 -0.875l0 4.703125l-1.640625 0zm1.484375 -8.484375q0 1.859375 0.75 2.765625q0.765625 0.890625 1.828125 0.890625q1.09375 0 1.875 -0.921875q0.78125 -0.9375 0.78125 -2.875q0 -1.84375 -0.765625 -2.765625q-0.75 -0.921875 -1.8125 -0.921875q-1.046875 0 -1.859375 0.984375q-0.796875 0.96875 -0.796875 2.84375zm15.574646 4.78125l-1.515625 0l0 -13.359375l1.640625 0l0 4.765625q1.046875 -1.296875 2.65625 -1.296875q0.890625 0 1.6875 0.359375q0.796875 0.359375 1.3125 1.015625q0.515625 0.640625 0.796875 1.5625q0.296875 0.921875 0.296875 1.96875q0 2.484375 -1.234375 3.84375q-1.21875 1.359375 -2.953125 1.359375q-1.703125 0 -2.6875 -1.4375l0 1.21875zm-0.015625 -4.90625q0 1.734375 0.484375 2.515625q0.765625 1.265625 2.09375 1.265625q1.078125 0 1.859375 -0.9375q0.78125 -0.9375 0.78125 -2.78125q0 -1.890625 -0.75 -2.796875q-0.75 -0.90625 -1.828125 -0.90625q-1.0625 0 -1.859375 0.9375q-0.78125 0.9375 -0.78125 2.703125zm15.219452 4.90625l0 -1.421875q-1.125 1.640625 -3.0625 1.640625q-0.859375 0 -1.609375 -0.328125q-0.734375 -0.328125 -1.09375 -0.828125q-0.359375 -0.5 -0.5 -1.21875q-0.109375 -0.46875 -0.109375 -1.53125l0 -5.984375l1.640625 0l0 5.359375q0 1.28125 0.109375 1.734375q0.15625 0.640625 0.65625 1.015625q0.5 0.375 1.234375 0.375q0.734375 0 1.375 -0.375q0.65625 -0.390625 0.921875 -1.03125q0.265625 -0.65625 0.265625 -1.890625l0 -5.1875l1.640625 0l0 9.671875l-1.46875 0zm7.6257324 -1.46875l0.234375 1.453125q-0.6875 0.140625 -1.234375 0.140625q-0.890625 0 -1.390625 -0.28125q-0.484375 -0.28125 -0.6875 -0.734375q-0.203125 -0.46875 -0.203125 -1.9375l0 -5.578125l-1.203125 0l0 -1.265625l1.203125 0l0 -2.390625l1.625 -0.984375l0 3.375l1.65625 0l0 1.265625l-1.65625 0l0 5.671875q0 0.6875 0.078125 0.890625q0.09375 0.203125 0.28125 0.328125q0.203125 0.109375 0.578125 0.109375q0.265625 0 0.71875 -0.0625zm5.1832886 0l0.234375 1.453125q-0.6875 0.140625 -1.234375 0.140625q-0.890625 0 -1.390625 -0.28125q-0.484375 -0.28125 -0.6875 -0.734375q-0.203125 -0.46875 -0.203125 -1.9375l0 -5.578125l-1.203125 0l0 -1.265625l1.203125 0l0 -2.390625l1.625 -0.984375l0 3.375l1.65625 0l0 1.265625l-1.65625 0l0 5.671875q0 0.6875 0.078125 0.890625q0.09375 0.203125 0.28125 0.328125q0.203125 0.109375 0.578125 0.109375q0.265625 0 0.71875 -0.0625zm0.9958191 -3.375q0 -2.6875 1.484375 -3.96875q1.25 -1.078125 3.046875 -1.078125q2.0 0 3.265625 1.3125q1.265625 1.296875 1.265625 3.609375q0 1.859375 -0.5625 2.9375q-0.5625 1.0625 -1.640625 1.65625q-1.0625 0.59375 -2.328125 0.59375q-2.03125 0 -3.28125 -1.296875q-1.25 -1.3125 -1.25 -3.765625zm1.6875 0q0 1.859375 0.796875 2.796875q0.8125 0.921875 2.046875 0.921875q1.21875 0 2.03125 -0.921875q0.8125 -0.9375 0.8125 -2.84375q0 -1.796875 -0.8125 -2.71875q-0.8125 -0.921875 -2.03125 -0.921875q-1.234375 0 -2.046875 0.921875q-0.796875 0.90625 -0.796875 2.765625zm9.297607 4.84375l0 -9.671875l1.46875 0l0 1.375q1.0625 -1.59375 3.078125 -1.59375q0.875 0 1.609375 0.3125q0.734375 0.3125 1.09375 0.828125q0.375 0.5 0.515625 1.203125q0.09375 0.453125 0.09375 1.59375l0 5.953125l-1.640625 0l0 -5.890625q0 -1.0 -0.203125 -1.484375q-0.1875 -0.5 -0.671875 -0.796875q-0.484375 -0.296875 -1.140625 -0.296875q-1.046875 0 -1.8125 0.671875q-0.75 0.65625 -0.75 2.515625l0 5.28125l-1.640625 0zm17.059021 0l-1.515625 0l0 -13.359375l1.640625 0l0 4.765625q1.046875 -1.296875 2.65625 -1.296875q0.890625 0 1.6875 0.359375q0.796875 0.359375 1.3125 1.015625q0.515625 0.640625 0.796875 1.5625q0.296875 0.921875 0.296875 1.96875q0 2.484375 -1.234375 3.84375q-1.21875 1.359375 -2.953125 1.359375q-1.703125 0 -2.6875 -1.4375l0 1.21875zm-0.015625 -4.90625q0 1.734375 0.484375 2.515625q0.765625 1.265625 2.09375 1.265625q1.078125 0 1.859375 -0.9375q0.78125 -0.9375 0.78125 -2.78125q0 -1.890625 -0.75 -2.796875q-0.75 -0.90625 -1.828125 -0.90625q-1.0625 0 -1.859375 0.9375q-0.78125 0.9375 -0.78125 2.703125zm15.203796 3.71875q-0.921875 0.765625 -1.765625 1.09375q-0.828125 0.3125 -1.796875 0.3125q-1.59375 0 -2.453125 -0.78125q-0.859375 -0.78125 -0.859375 -1.984375q0 -0.71875 0.328125 -1.296875q0.328125 -0.59375 0.84375 -0.9375q0.53125 -0.359375 1.1875 -0.546875q0.46875 -0.125 1.453125 -0.25q1.984375 -0.234375 2.921875 -0.5625q0.015625 -0.34375 0.015625 -0.421875q0 -1.0 -0.46875 -1.421875q-0.625 -0.546875 -1.875 -0.546875q-1.15625 0 -1.703125 0.40625q-0.546875 0.40625 -0.8125 1.421875l-1.609375 -0.21875q0.21875 -1.015625 0.71875 -1.640625q0.5 -0.640625 1.453125 -0.984375q0.953125 -0.34375 2.1875 -0.34375q1.25 0 2.015625 0.296875q0.78125 0.28125 1.140625 0.734375q0.375 0.4375 0.515625 1.109375q0.078125 0.421875 0.078125 1.515625l0 2.1875q0 2.28125 0.109375 2.890625q0.109375 0.59375 0.40625 1.15625l-1.703125 0q-0.265625 -0.515625 -0.328125 -1.1875zm-0.140625 -3.671875q-0.890625 0.375 -2.671875 0.625q-1.015625 0.140625 -1.4375 0.328125q-0.421875 0.1875 -0.65625 0.53125q-0.21875 0.34375 -0.21875 0.78125q0 0.65625 0.5 1.09375q0.5 0.4375 1.453125 0.4375q0.9375 0 1.671875 -0.40625q0.75 -0.421875 1.09375 -1.140625q0.265625 -0.5625 0.265625 -1.640625l0 -0.609375zm4.1882324 4.859375l0 -9.671875l1.46875 0l0 1.46875q0.5625 -1.03125 1.03125 -1.359375q0.484375 -0.328125 1.0625 -0.328125q0.828125 0 1.6875 0.53125l-0.5625 1.515625q-0.609375 -0.359375 -1.203125 -0.359375q-0.546875 0 -0.96875 0.328125q-0.421875 0.328125 -0.609375 0.890625q-0.28125 0.875 -0.28125 1.921875l0 5.0625l-1.625 0z" fill-rule="nonzero"/><path fill="#000000" fill-opacity="0.0" d="m408.76642 540.2572l172.91339 0l0 41.921265l-172.91339 0z" fill-rule="evenodd"/><path fill="#000000" d="m422.43118 567.17725l0 -13.359375l5.015625 0q1.53125 0 2.453125 0.40625q0.921875 0.40625 1.4375 1.25q0.53125 0.84375 0.53125 1.765625q0 0.859375 -0.46875 1.625q-0.453125 0.75 -1.390625 1.203125q1.203125 0.359375 1.859375 1.21875q0.65625 0.859375 0.65625 2.015625q0 0.9375 -0.40625 1.75q-0.390625 0.796875 -0.984375 1.234375q-0.578125 0.4375 -1.453125 0.671875q-0.875 0.21875 -2.15625 0.21875l-5.09375 0zm1.78125 -7.75l2.875 0q1.1875 0 1.6875 -0.140625q0.671875 -0.203125 1.015625 -0.671875q0.34375 -0.46875 0.34375 -1.171875q0 -0.65625 -0.328125 -1.15625q-0.3125 -0.515625 -0.90625 -0.703125q-0.59375 -0.1875 -2.03125 -0.1875l-2.65625 0l0 4.03125zm0 6.171875l3.3125 0q0.859375 0 1.203125 -0.0625q0.609375 -0.109375 1.015625 -0.359375q0.421875 -0.265625 0.6875 -0.75q0.265625 -0.484375 0.265625 -1.125q0 -0.75 -0.390625 -1.296875q-0.375 -0.546875 -1.0625 -0.765625q-0.671875 -0.234375 -1.953125 -0.234375l-3.078125 0l0 4.59375zm9.927948 -3.265625q0 -2.6875 1.484375 -3.96875q1.25 -1.078125 3.046875 -1.078125q2.0 0 3.265625 1.3125q1.265625 1.296875 1.265625 3.609375q0 1.859375 -0.5625 2.9375q-0.5625 1.0625 -1.640625 1.65625q-1.0625 0.59375 -2.328125 0.59375q-2.03125 0 -3.28125 -1.296875q-1.25 -1.3125 -1.25 -3.765625zm1.6875 0q0 1.859375 0.796875 2.796875q0.8125 0.921875 2.046875 0.921875q1.21875 0 2.03125 -0.921875q0.8125 -0.9375 0.8125 -2.84375q0 -1.796875 -0.8125 -2.71875q-0.8125 -0.921875 -2.03125 -0.921875q-1.234375 0 -2.046875 0.921875q-0.796875 0.90625 -0.796875 2.765625zm12.875702 3.375l0.234375 1.453125q-0.6875 0.140625 -1.234375 0.140625q-0.890625 0 -1.390625 -0.28125q-0.484375 -0.28125 -0.6875 -0.734375q-0.203125 -0.46875 -0.203125 -1.9375l0 -5.578125l-1.203125 0l0 -1.265625l1.203125 0l0 -2.390625l1.625 -0.984375l0 3.375l1.65625 0l0 1.265625l-1.65625 0l0 5.671875q0 0.6875 0.078125 0.890625q0.09375 0.203125 0.28125 0.328125q0.203125 0.109375 0.578125 0.109375q0.265625 0 0.71875 -0.0625zm5.183319 0l0.234375 1.453125q-0.6875 0.140625 -1.234375 0.140625q-0.890625 0 -1.390625 -0.28125q-0.484375 -0.28125 -0.6875 -0.734375q-0.203125 -0.46875 -0.203125 -1.9375l0 -5.578125l-1.203125 0l0 -1.265625l1.203125 0l0 -2.390625l1.625 -0.984375l0 3.375l1.65625 0l0 1.265625l-1.65625 0l0 5.671875q0 0.6875 0.078125 0.890625q0.09375 0.203125 0.28125 0.328125q0.203125 0.109375 0.578125 0.109375q0.265625 0 0.71875 -0.0625zm0.9957886 -3.375q0 -2.6875 1.484375 -3.96875q1.25 -1.078125 3.046875 -1.078125q2.0 0 3.265625 1.3125q1.265625 1.296875 1.265625 3.609375q0 1.859375 -0.5625 2.9375q-0.5625 1.0625 -1.640625 1.65625q-1.0625 0.59375 -2.328125 0.59375q-2.03125 0 -3.28125 -1.296875q-1.25 -1.3125 -1.25 -3.765625zm1.6875 0q0 1.859375 0.796875 2.796875q0.8125 0.921875 2.046875 0.921875q1.21875 0 2.03125 -0.921875q0.8125 -0.9375 0.8125 -2.84375q0 -1.796875 -0.8125 -2.71875q-0.8125 -0.921875 -2.03125 -0.921875q-1.234375 0 -2.046875 0.921875q-0.796875 0.90625 -0.796875 2.765625zm9.297607 4.84375l0 -9.671875l1.46875 0l0 1.359375q0.453125 -0.71875 1.203125 -1.140625q0.765625 -0.4375 1.71875 -0.4375q1.078125 0 1.765625 0.453125q0.6875 0.4375 0.96875 1.234375q1.15625 -1.6875 2.984375 -1.6875q1.453125 0 2.21875 0.796875q0.78125 0.796875 0.78125 2.453125l0 6.640625l-1.640625 0l0 -6.09375q0 -0.984375 -0.15625 -1.40625q-0.15625 -0.4375 -0.578125 -0.703125q-0.421875 -0.265625 -0.984375 -0.265625q-1.015625 0 -1.6875 0.6875q-0.671875 0.671875 -0.671875 2.15625l0 5.625l-1.640625 0l0 -6.28125q0 -1.09375 -0.40625 -1.640625q-0.40625 -0.546875 -1.3125 -0.546875q-0.6875 0 -1.28125 0.359375q-0.59375 0.359375 -0.859375 1.0625q-0.25 0.703125 -0.25 2.03125l0 5.015625l-1.640625 0zm22.22409 0l-1.515625 0l0 -13.359375l1.640625 0l0 4.765625q1.046875 -1.296875 2.65625 -1.296875q0.890625 0 1.6875 0.359375q0.796875 0.359375 1.3125 1.015625q0.515625 0.640625 0.796875 1.5625q0.296875 0.921875 0.296875 1.96875q0 2.484375 -1.234375 3.84375q-1.21875 1.359375 -2.953125 1.359375q-1.703125 0 -2.6875 -1.4375l0 1.21875zm-0.015625 -4.90625q0 1.734375 0.484375 2.515625q0.765625 1.265625 2.09375 1.265625q1.078125 0 1.859375 -0.9375q0.78125 -0.9375 0.78125 -2.78125q0 -1.890625 -0.75 -2.796875q-0.75 -0.90625 -1.828125 -0.90625q-1.0625 0 -1.859375 0.9375q-0.78125 0.9375 -0.78125 2.703125zm15.219482 4.90625l0 -1.421875q-1.125 1.640625 -3.0625 1.640625q-0.859375 0 -1.609375 -0.328125q-0.734375 -0.328125 -1.09375 -0.828125q-0.359375 -0.5 -0.5 -1.21875q-0.109375 -0.46875 -0.109375 -1.53125l0 -5.984375l1.640625 0l0 5.359375q0 1.28125 0.109375 1.734375q0.15625 0.640625 0.65625 1.015625q0.5 0.375 1.234375 0.375q0.734375 0 1.375 -0.375q0.65625 -0.390625 0.921875 -1.03125q0.265625 -0.65625 0.265625 -1.890625l0 -5.1875l1.640625 0l0 9.671875l-1.46875 0zm7.625702 -1.46875l0.234375 1.453125q-0.6875 0.140625 -1.234375 0.140625q-0.890625 0 -1.390625 -0.28125q-0.484375 -0.28125 -0.6875 -0.734375q-0.203125 -0.46875 -0.203125 -1.9375l0 -5.578125l-1.203125 0l0 -1.265625l1.203125 0l0 -2.390625l1.625 -0.984375l0 3.375l1.65625 0l0 1.265625l-1.65625 0l0 5.671875q0 0.6875 0.078125 0.890625q0.09375 0.203125 0.28125 0.328125q0.203125 0.109375 0.578125 0.109375q0.265625 0 0.71875 -0.0625zm5.1832886 0l0.234375 1.453125q-0.6875 0.140625 -1.234375 0.140625q-0.890625 0 -1.390625 -0.28125q-0.484375 -0.28125 -0.6875 -0.734375q-0.203125 -0.46875 -0.203125 -1.9375l0 -5.578125l-1.2030945 0l0 -1.265625l1.2030945 0l0 -2.390625l1.625 -0.984375l0 3.375l1.65625 0l0 1.265625l-1.65625 0l0 5.671875q0 0.6875 0.078125 0.890625q0.09375 0.203125 0.28125 0.328125q0.203125 0.109375 0.578125 0.109375q0.265625 0 0.71875 -0.0625zm0.9958496 -3.375q0 -2.6875 1.484375 -3.96875q1.25 -1.078125 3.046875 -1.078125q2.0 0 3.265625 1.3125q1.265625 1.296875 1.265625 3.609375q0 1.859375 -0.5625 2.9375q-0.5625 1.0625 -1.640625 1.65625q-1.0625 0.59375 -2.328125 0.59375q-2.03125 0 -3.28125 -1.296875q-1.25 -1.3125 -1.25 -3.765625zm1.6875 0q0 1.859375 0.796875 2.796875q0.8125 0.921875 2.046875 0.921875q1.21875 0 2.03125 -0.921875q0.8125 -0.9375 0.8125 -2.84375q0 -1.796875 -0.8125 -2.71875q-0.8125 -0.921875 -2.03125 -0.921875q-1.234375 0 -2.046875 0.921875q-0.796875 0.90625 -0.796875 2.765625zm9.297546 4.84375l0 -9.671875l1.46875 0l0 1.375q1.0625 -1.59375 3.078125 -1.59375q0.875 0 1.609375 0.3125q0.734375 0.3125 1.09375 0.828125q0.375 0.5 0.515625 1.203125q0.09375 0.453125 0.09375 1.59375l0 5.953125l-1.640625 0l0 -5.890625q0 -1.0 -0.203125 -1.484375q-0.1875 -0.5 -0.671875 -0.796875q-0.484375 -0.296875 -1.140625 -0.296875q-1.046875 0 -1.8125 0.671875q-0.75 0.65625 -0.75 2.515625l0 5.28125l-1.640625 0zm17.059021 0l-1.515625 0l0 -13.359375l1.640625 0l0 4.765625q1.046875 -1.296875 2.65625 -1.296875q0.890625 0 1.6875 0.359375q0.796875 0.359375 1.3125 1.015625q0.515625 0.640625 0.796875 1.5625q0.296875 0.921875 0.296875 1.96875q0 2.484375 -1.234375 3.84375q-1.21875 1.359375 -2.953125 1.359375q-1.703125 0 -2.6875 -1.4375l0 1.21875zm-0.015625 -4.90625q0 1.734375 0.484375 2.515625q0.765625 1.265625 2.09375 1.265625q1.078125 0 1.859375 -0.9375q0.78125 -0.9375 0.78125 -2.78125q0 -1.890625 -0.75 -2.796875q-0.75 -0.90625 -1.828125 -0.90625q-1.0625 0 -1.859375 0.9375q-0.78125 0.9375 -0.78125 2.703125zm15.203857 3.71875q-0.921875 0.765625 -1.765625 1.09375q-0.828125 0.3125 -1.796875 0.3125q-1.59375 0 -2.453125 -0.78125q-0.859375 -0.78125 -0.859375 -1.984375q0 -0.71875 0.328125 -1.296875q0.328125 -0.59375 0.84375 -0.9375q0.53125 -0.359375 1.1875 -0.546875q0.46875 -0.125 1.453125 -0.25q1.984375 -0.234375 2.921875 -0.5625q0.015625 -0.34375 0.015625 -0.421875q0 -1.0 -0.46875 -1.421875q-0.625 -0.546875 -1.875 -0.546875q-1.15625 0 -1.703125 0.40625q-0.546875 0.40625 -0.8125 1.421875l-1.609375 -0.21875q0.21875 -1.015625 0.71875 -1.640625q0.5 -0.640625 1.453125 -0.984375q0.953125 -0.34375 2.1875 -0.34375q1.25 0 2.015625 0.296875q0.78125 0.28125 1.140625 0.734375q0.375 0.4375 0.515625 1.109375q0.078125 0.421875 0.078125 1.515625l0 2.1875q0 2.28125 0.109375 2.890625q0.109375 0.59375 0.40625 1.15625l-1.703125 0q-0.265625 -0.515625 -0.328125 -1.1875zm-0.140625 -3.671875q-0.890625 0.375 -2.671875 0.625q-1.015625 0.140625 -1.4375 0.328125q-0.421875 0.1875 -0.65625 0.53125q-0.21875 0.34375 -0.21875 0.78125q0 0.65625 0.5 1.09375q0.5 0.4375 1.453125 0.4375q0.9375 0 1.671875 -0.40625q0.75 -0.421875 1.09375 -1.140625q0.265625 -0.5625 0.265625 -1.640625l0 -0.609375zm4.1882324 4.859375l0 -9.671875l1.46875 0l0 1.46875q0.5625 -1.03125 1.03125 -1.359375q0.484375 -0.328125 1.0625 -0.328125q0.828125 0 1.6875 0.53125l-0.5625 1.515625q-0.609375 -0.359375 -1.203125 -0.359375q-0.546875 0 -0.96875 0.328125q-0.421875 0.328125 -0.609375 0.890625q-0.28125 0.875 -0.28125 1.921875l0 5.0625l-1.625 0z" fill-rule="nonzero"/><path fill="#000000" fill-opacity="0.0" d="m172.13979 440.55112l0.03149414 -172.94489l41.921265 0.03149414l-0.03149414 172.94489z" fill-rule="evenodd"/><path fill="#000000" d="m199.06482 412.89862l-13.359375 -0.010040283l3.3569336E-4 -1.78125l11.78125 0.008850098l0.0011901855 -6.5625l1.578125 0.0011901855l-0.0015258789 8.34375zm-3.1062927 -16.878052l0.20343018 -1.6873474q1.4842987 0.40737915 2.3122253 1.4861145q0.81230164 1.0787354 0.81199646 2.7662354q-3.8146973E-4 2.125 -1.2974854 3.3740234q-1.3127289 1.2333984 -3.672104 1.2316284q-2.453125 -0.0018615723 -3.796646 -1.2528687q-1.3435211 -1.2666321 -1.3431549 -3.266632q3.5095215E-4 -1.9375 1.3287048 -3.155243q1.3127136 -1.2333984 3.7033386 -1.2315979q0.15625 1.2207031E-4 0.4375 3.3569336E-4l-0.0013122559 7.21875q1.5937653 -0.092559814 2.4532928 -0.90441895q0.8439026 -0.81185913 0.8441162 -2.0149841q1.6784668E-4 -0.90625 -0.46846008 -1.5472107q-0.4842682 -0.6409912 -1.5154419 -1.0167847zm-2.6572418 5.3886414l9.918213E-4 -5.40625q-1.2187653 0.10845947 -1.8282471 0.6236267q-0.9532623 0.7805176 -0.9534912 2.0305176q-1.9836426E-4 1.125 0.7652893 1.9068298q0.7498474 0.76620483 2.0154572 0.8452759zm5.7673645 -9.527649l-8.40625 -0.0063171387l-2.593994E-4 1.453125l-1.265625 -9.460449E-4l2.593994E-4 -1.453125l-1.03125 -7.6293945E-4q-0.96875 -7.324219E-4 -1.4530945 -0.17297363q-0.6405792 -0.23486328 -1.0310974 -0.82888794q-0.3905182 -0.5940552 -0.39031982 -1.6721802q1.2207031E-4 -0.6875 0.15652466 -1.5311279l1.4374542 0.25106812q-0.09384155 0.49993896 -0.09391785 0.95306396q-1.373291E-4 0.75 0.32792664 1.0627441q0.31245422 0.31274414 1.1874542 0.313385l0.890625 6.713867E-4l3.3569336E-4 -1.890625l1.265625 9.460449E-4l-3.3569336E-4 1.890625l8.40625 0.0063171387l-3.0517578E-4 1.625zm-1.4672241 -8.371887l1.4531708 -0.23330688q0.14050293 0.6876221 0.14039612 1.2344971q-1.6784668E-4 0.890625 -0.28149414 1.3904114q-0.28134155 0.48416138 -0.7345123 0.6869507q-0.46878052 0.20275879 -1.9375305 0.20166016l-5.578125 -0.004180908l-2.1362305E-4 1.203125l-1.265625 -9.460449E-4l2.1362305E-4 -1.203125l-2.390625 -0.0018005371l-0.9840851 -1.6257324l3.375 0.002532959l3.0517578E-4 -1.65625l1.265625 9.460449E-4l-3.0517578E-4 1.65625l5.671875 0.0042419434q0.6875 5.187988E-4 0.89064026 -0.07745361q0.20314026 -0.09359741 0.32818604 -0.28100586q0.10940552 -0.20303345 0.10946655 -0.57803345q6.1035156E-5 -0.265625 -0.06236267 -0.7187805zm1.4702606 -8.287384l-2.746582E-4 1.515625l-13.359375 -0.010040283l3.0517578E-4 -1.640625l4.765625 0.0035705566q-1.2966919 -1.0478516 -1.296402 -2.6572266q1.6784668E-4 -0.890625 0.35968018 -1.6872253q0.3595276 -0.79660034 1.0158691 -1.3117371q0.64071655 -0.5151367 1.5626526 -0.7956848q0.9219208 -0.2962036 1.9687958 -0.29541016q2.484375 0.0018615723 3.843521 1.2372742q1.3591614 1.2197571 1.358841 2.954132q-3.0517578E-4 1.703125 -1.4379883 2.686432l1.21875 9.1552734E-4zm-4.90625 0.011932373q1.734375 0.0013122559 2.5157166 -0.4824829q1.2657623 -0.76467896 1.2660065 -2.092804q1.8310547E-4 -1.078125 -0.9371643 -1.8600769q-0.9373627 -0.7819519 -2.7811127 -0.7833252q-1.890625 -0.0014343262 -2.7970123 0.7478943q-0.9063873 0.7492981 -0.9065857 1.8274231q-1.8310547E-4 1.0625 0.9371643 1.8600769q0.9373627 0.7819824 2.7029877 0.7832947zm4.909012 -15.21579l-1.421875 -0.0010681152q1.6404266 1.1262512 1.6400757 3.0637512q-1.5258789E-4 0.859375 -0.32841492 1.6091309q-0.32826233 0.73413086 -0.82832336 1.0931091q-0.5000763 0.3590088 -1.2188416 0.49908447q-0.46878052 0.10903931 -1.5312805 0.10824585l-5.984375 -0.0045166016l3.0517578E-4 -1.640625l5.359375 0.0040283203q1.28125 9.765625E-4 1.7343903 -0.108062744q0.6406555 -0.15576172 1.0157471 -0.65548706q0.37509155 -0.49972534 0.37522888 -1.2341003q1.373291E-4 -0.734375 -0.37475586 -1.3752747q-0.39050293 -0.6565552 -1.0310822 -0.92266846q-0.6562042 -0.26611328 -1.8905792 -0.2670288l-5.1875 -0.00390625l3.0517578E-4 -1.640625l9.671875 0.0072631836l-2.746582E-4 1.46875zm-1.4673615 -7.6268005l1.4531708 -0.23330688q0.14050293 0.6876221 0.14041138 1.2344971q-1.6784668E-4 0.890625 -0.2815094 1.3904114q-0.28134155 0.48416138 -0.7344971 0.6869507q-0.46879578 0.20275879 -1.9375458 0.20166016l-5.578125 -0.004180908l-2.1362305E-4 1.203125l-1.265625 -9.460449E-4l2.1362305E-4 -1.203125l-2.390625 -0.0018005371l-0.9840698 -1.6257324l3.375 0.002532959l3.0517578E-4 -1.65625l1.265625 9.460449E-4l-3.0517578E-4 1.65625l5.671875 0.004272461q0.6875 4.8828125E-4 0.89064026 -0.07748413q0.20314026 -0.09359741 0.32817078 -0.28097534q0.10940552 -0.20306396 0.10948181 -0.57806396q4.5776367E-5 -0.265625 -0.06237793 -0.7187805zm9.460449E-4 -5.183319l1.4531708 -0.23327637q0.14050293 0.68759155 0.14039612 1.2344666q-1.5258789E-4 0.890625 -0.28149414 1.3904114q-0.28134155 0.4841919 -0.7344971 0.6869507q-0.46879578 0.2027893 -1.9375458 0.20169067l-5.578125 -0.004211426l-2.1362305E-4 1.203125l-1.265625 -9.460449E-4l2.1362305E-4 -1.203125l-2.390625 -0.0018005371l-0.9840698 -1.6257324l3.375 0.002532959l2.89917E-4 -1.65625l1.265625 9.460449E-4l-2.89917E-4 1.65625l5.671875 0.004272461q0.6875 5.187988E-4 0.890625 -0.07745361q0.20315552 -0.09359741 0.32818604 -0.28100586q0.10940552 -0.20303345 0.10948181 -0.57803345q4.5776367E-5 -0.265625 -0.06237793 -0.71881104zm-3.374817 -0.99832153q-2.6875 -0.0020446777 -3.9684753 -1.4873657q-1.0778961 -1.250824 -1.0775757 -3.047699q3.6621094E-4 -2.0 1.3130951 -3.264618q1.2971039 -1.2646484 3.609604 -1.2629089q1.859375 0.001373291 2.9374084 0.56469727q1.0623932 0.56329346 1.6559448 1.6418762q0.59355164 1.0629272 0.59332275 2.3285522q-3.6621094E-4 2.03125 -1.2974701 3.2802734q-1.3127289 1.2490234 -3.765854 1.2471924zm3.0517578E-4 -1.6875q1.859375 0.001373291 2.7970276 -0.7947998q0.9220276 -0.8117981 0.9222412 -2.046173q2.2888184E-4 -1.21875 -0.92149353 -2.031952q-0.9373627 -0.8132019 -2.8436127 -0.81463623q-1.796875 -0.0013427734 -2.7188873 0.8104553q-0.9220276 0.8118286 -0.92225647 2.0305786q-2.1362305E-4 1.234375 0.9215088 2.0475464q0.9060974 0.7975769 2.7654724 0.7989807zm4.8454437 -9.293976l-9.671875 -0.0072631836l2.746582E-4 -1.46875l1.375 0.0010375977q-1.5935516 -1.0636902 -1.5931854 -3.0793152q1.5258789E-4 -0.875 0.31278992 -1.6091309q0.31263733 -0.7341614 0.82832336 -1.0931396q0.50006104 -0.3746338 1.2032166 -0.5147095q0.45314026 -0.09341431 1.5937653 -0.092559814l5.953125 0.0044555664l-2.89917E-4 1.640625l-5.890625 -0.004425049q-1.0 -7.324219E-4 -1.4844208 0.20202637q-0.5000305 0.18710327 -0.7969971 0.67126465q-0.29696655 0.48416138 -0.29707336 1.1404114q-1.9836426E-4 1.046875 0.6715393 1.8129883q0.6561127 0.7505188 2.5154877 0.7518921l5.28125 0.003967285l-3.0517578E-4 1.640625zm0.003112793 -17.059021l-2.746582E-4 1.515625l-13.359375 -0.010040283l2.89917E-4 -1.640625l4.765625 0.0036010742q-1.2966766 -1.0478516 -1.2963867 -2.6572266q1.6784668E-4 -0.890625 0.35968018 -1.6872253q0.3595276 -0.79660034 1.0158691 -1.3117371q0.64071655 -0.51516724 1.5626373 -0.79571533q0.92193604 -0.2961731 1.968811 -0.29537964q2.484375 0.0018615723 3.843521 1.2372437q1.3591614 1.2197876 1.358841 2.9541626q-3.0517578E-4 1.703125 -1.4379883 2.6864014l1.21875 9.1552734E-4zm-4.90625 0.011962891q1.734375 0.0012817383 2.5157166 -0.48251343q1.2657623 -0.76464844 1.2659912 -2.0927734q1.9836426E-4 -1.078125 -0.93714905 -1.8600769q-0.9373627 -0.7819824 -2.7811127 -0.7833557q-1.890625 -0.0014038086 -2.7970123 0.7478943q-0.9063873 0.7493286 -0.9065857 1.8274536q-1.8310547E-4 1.0625 0.9371643 1.8600769q0.9373627 0.7819519 2.7029877 0.7832947zm3.7215118 -15.20105q0.76545715 0.9224243 1.0934296 1.766449q0.3123474 0.8283386 0.31217957 1.7970886q-2.89917E-4 1.59375 -0.78170776 2.4525452q-0.7814026 0.85879517 -1.9845276 0.85787964q-0.71875 -5.493164E-4 -1.296814 -0.32910156q-0.59368896 -0.32855225 -0.9373474 -0.8444519q-0.35928345 -0.53152466 -0.5466614 -1.1878967q-0.12490845 -0.46884155 -0.24972534 -1.4533081q-0.23402405 -1.9845581 -0.56196594 -2.9223022q-0.34375 -0.015899658 -0.421875 -0.015960693q-1.0 -7.324219E-4 -1.4219666 0.46768188q-0.5469818 0.6246033 -0.5472107 1.8746033q-2.1362305E-4 1.15625 0.40592957 1.7034302q0.40615845 0.5471802 1.4217377 0.8135681l-0.21903992 1.6091919q-1.0155945 -0.21951294 -1.6405029 -0.7199707q-0.64053345 -0.5004883 -0.9841156 -1.4538574q-0.3435669 -0.95339966 -0.343338 -2.1877747q2.2888184E-4 -1.25 0.2972412 -2.0153809q0.28138733 -0.7810364 0.73457336 -1.1400757q0.4375763 -0.3746643 1.1094666 -0.514801q0.42189026 -0.077819824 1.5156403 -0.07699585l2.1875 0.0016479492q2.28125 0.0017089844 2.8906555 -0.10720825q0.59376526 -0.10891724 1.156311 -0.405365l-3.0517578E-4 1.703125q-0.5156708 0.26522827 -1.187561 0.32724zm-3.6718903 0.1378479q0.37483215 0.89089966 0.6245117 2.6723633q0.1404419 1.0157166 0.32785034 1.4377441q0.1874237 0.42199707 0.5311432 0.6566467q0.34370422 0.21899414 0.7812042 0.21932983q0.65625 4.8828125E-4 1.0938416 -0.49917603q0.43759155 -0.4996643 0.4377594 -1.4527893q1.8310547E-4 -0.9375 -0.40594482 -1.6721802q-0.42173767 -0.7503357 -1.1404266 -1.0946045q-0.56243896 -0.26605225 -1.640564 -0.26687622l-0.609375 -4.5776367E-4zm4.8601227 -4.1845703l-9.67186 -0.0072631836l2.593994E-4 -1.46875l1.46875 0.0010986328q-1.0311432 -0.56326294 -1.3591919 -1.0322571q-0.32803345 -0.48461914 -0.32792664 -1.0627441q1.5258789E-4 -0.828125 0.5315552 -1.6871033l1.5155182 0.56362915q-0.3594818 0.60910034 -0.35958862 1.2028503q-9.1552734E-5 0.546875 0.32795715 0.96899414q0.3280487 0.42214966 0.8905029 0.6100464q0.8749542 0.2819214 1.9218292 0.28271484l5.0625 0.0037841797l-3.0517578E-4 1.625z" fill-rule="nonzero"/><path fill="#000000" fill-opacity="0.0" d="m817.92487 267.64407l0.03149414 172.94485l-41.858276 -0.06298828l-0.03149414 -172.94489z" fill-rule="evenodd"/><path fill="#000000" d="m791.0088 289.1684l13.359375 0.020111084l0.0010986328 5.921875q3.0517578E-4 1.78125 -0.35888672 2.7025757q-0.3591919 0.9369507 -1.2809448 1.4824524q-0.90618896 0.5611267 -2.015564 0.55944824q-1.40625 -0.002105713 -2.390808 -0.9254761q-0.9688721 -0.9233093 -1.2348633 -2.845581q-0.34362793 0.7026062 -0.6716919 1.0770874q-0.7030029 0.7645874 -1.7653809 1.45047l-3.6401978 2.3226624l-3.6621094E-4 -2.21875l2.7809448 -1.7614441q1.2029419 -0.77944946 1.8278809 -1.2785034q0.6405029 -0.49902344 0.8904419 -0.9049072q0.26556396 -0.39022827 0.35925293 -0.7963257q0.078063965 -0.29675293 0.077941895 -0.9842529l-3.6621094E-4 -2.046875l-5.9375 -0.00894165l-3.6621094E-4 -1.765625zm7.453491 1.776825l6.713867E-4 3.796875q2.4414062E-4 1.21875 0.2503662 1.8910217q0.26574707 0.6878967 0.8126831 1.0480957q0.54693604 0.36019897 1.187561 0.36114502q0.953125 0.0014343262 1.5623779 -0.68515015q0.6092529 -0.6865845 0.60894775 -2.1865845l-7.324219E-4 -4.21875l-4.421875 -0.006652832zm4.0177 11.479004l1.890625 0.0028381348l3.0517578E-4 1.640625l-1.890625 -0.0028381348l-3.0517578E-4 -1.640625zm-11.46875 -0.01727295l9.671875 0.014556885l3.0517578E-4 1.640625l-9.671875 -0.014556885l-3.0517578E-4 -1.640625zm-0.7962036 3.8311462l-0.23406982 1.5933838q-0.75 0.10824585 -1.0780029 0.56088257q-0.45306396 0.6086731 -0.45281982 1.6711731q1.8310547E-4 1.140625 0.45343018 1.7507019q0.45324707 0.6256714 1.2657471 0.8456421q0.50006104 0.12576294 2.109436 0.11254883q-1.2658081 -1.0643921 -1.2661133 -2.673767q-3.6621094E-4 -2.0 1.4369507 -3.0915833q1.4372559 -1.0915833 3.4528809 -1.088562q1.390625 0.002105713 2.562622 0.5038452q1.171936 0.517395 1.7971191 1.4558411q0.6408081 0.95410156 0.64105225 2.2509766q3.0517578E-4 1.703125 -1.3745117 2.8104248l1.15625 0.001739502l3.0517578E-4 1.515625l-8.359375 -0.012573242q-2.265625 -0.0034179688 -3.203247 -0.47357178q-0.93756104 -0.45455933 -1.4846191 -1.4553833q-0.5470581 -0.985199 -0.54730225 -2.453949q-3.6621094E-4 -1.71875 0.7807007 -2.7956848q0.7654419 -1.0613403 2.343567 -1.02771zm5.812744 1.368103q-1.90625 -0.0028686523 -2.781067 0.7458191q-0.8748779 0.76431274 -0.8746948 1.9049377q2.4414062E-4 1.125 0.8597412 1.8919067q0.8751221 0.76693726 2.734497 0.7697449q1.78125 0.0026855469 2.671753 -0.7928467q0.9060669 -0.7798767 0.9058838 -1.8892517q-1.8310547E-4 -1.09375 -0.8909302 -1.8607178q-0.8751831 -0.7669678 -2.625183 -0.7695923zm-5.013916 9.321289l13.359375 0.020111084l3.0517578E-4 1.640625l-4.796875 -0.0072021484q1.3283081 1.1426086 1.3286743 2.8926086q1.8310547E-4 1.078125 -0.42156982 1.8587341q-0.4216919 0.79623413 -1.1716309 1.138855q-0.74993896 0.34262085 -2.171814 0.34048462l-6.125 -0.009216309l-3.0517578E-4 -1.640625l6.125 0.009216309q1.234375 0.0018615723 1.7967529 -0.52853394q0.56243896 -0.5303955 0.56225586 -1.5147705q-1.2207031E-4 -0.71875 -0.39086914 -1.3599854q-0.37512207 -0.6411743 -1.0158081 -0.9234009q-0.64068604 -0.26657104 -1.781311 -0.26828003l-5.296875 -0.0079956055l-3.0517578E-4 -1.640625zm1.4713135 13.956055l-1.453125 0.23220825q-0.14074707 -0.6877136 -0.1408081 -1.2345886q-1.8310547E-4 -0.890625 0.28100586 -1.3901978q0.28112793 -0.48397827 0.7342529 -0.68640137q0.46868896 -0.2024231 1.937439 -0.20022583l5.578125 0.008392334l-2.4414062E-4 -1.203125l1.265625 0.0019226074l2.4414062E-4 1.203125l2.390625 0.0036010742l0.9846802 1.6264648l-3.375 -0.005065918l3.0517578E-4 1.65625l-1.265625 -0.0019226074l-3.0517578E-4 -1.65625l-5.671875 -0.008514404q-0.6875 -0.0010375977 -0.890625 0.07678223q-0.203125 0.093444824 -0.32806396 0.28076172q-0.109375 0.2029419 -0.10925293 0.5779419q0 0.265625 0.06262207 0.71884155zm-1.4672852 8.286285l-2.4414062E-4 -1.515625l13.359375 0.020111084l3.0517578E-4 1.640625l-4.765625 -0.007171631q1.2970581 1.0488281 1.2973633 2.6582031q1.2207031E-4 0.890625 -0.35906982 1.6869507q-0.35925293 0.7963257 -1.0153809 1.3109741q-0.64056396 0.51464844 -1.5623779 0.79452515q-0.92181396 0.2954712 -1.968689 0.2939148q-2.484375 -0.003753662 -3.8439941 -1.2401733q-1.3595581 -1.2207947 -1.3599243 -2.9551697q-3.0517578E-4 -1.703125 1.4370117 -2.6853333l-1.21875 -0.0018310547zm4.90625 -0.008239746q-1.734375 -0.0026245117 -2.515503 0.48059082q-1.2655029 0.7637024 -1.2652588 2.0918274q1.8310547E-4 1.078125 0.9378662 1.8608093q0.9376221 0.7826538 2.781372 0.7854309q1.890625 0.0028381348 2.796753 -0.7457886q0.9061279 -0.7486572 0.9058838 -1.8267822q-1.8310547E-4 -1.0625 -0.9378052 -1.8607788q-0.9376831 -0.7826538 -2.703308 -0.78530884zm-4.9034424 15.212067l1.421875 0.0021362305q-1.6408691 -1.1274414 -1.6411743 -3.0649414q-1.8310547E-4 -0.859375 0.32781982 -1.6088867q0.32800293 -0.7338867 0.8279419 -1.0924988q0.49993896 -0.35864258 1.2186279 -0.49816895q0.46875 -0.108673096 1.53125 -0.10708618l5.984375 0.009002686l3.0517578E-4 1.640625l-5.359375 -0.008056641q-1.28125 -0.0019226074 -1.734375 0.10675049q-0.64056396 0.15530396 -1.0155029 0.6547241q-0.37493896 0.49945068 -0.37475586 1.2338257q1.2207031E-4 0.734375 0.37524414 1.3755493q0.39074707 0.65686035 1.0314331 0.9234314q0.65625 0.26663208 1.890625 0.26846313l5.1875 0.0078125l3.0517578E-4 1.640625l-9.671875 -0.014556885l-2.4414062E-4 -1.46875zm1.4701538 7.6279297l-1.453125 0.23220825q-0.14074707 -0.6877136 -0.1408081 -1.2345886q-1.8310547E-4 -0.890625 0.28094482 -1.3901978q0.28118896 -0.48397827 0.7342529 -0.68640137q0.46875 -0.2024231 1.9375 -0.20022583l5.578125 0.008392334l-2.4414062E-4 -1.203125l1.265625 0.0019226074l2.4414062E-4 1.203125l2.390625 0.0036010742l0.9846802 1.6264648l-3.375 -0.005065918l3.0517578E-4 1.65625l-1.265625 -0.0019226074l-3.0517578E-4 -1.65625l-5.671875 -0.008514404q-0.6875 -0.0010375977 -0.890625 0.07678223q-0.203125 0.093444824 -0.32806396 0.28076172q-0.109375 0.2029419 -0.109313965 0.5779419q6.1035156E-5 0.265625 0.062683105 0.71884155zm9.1552734E-4 5.183319l-1.453064 0.23217773q-0.14074707 -0.6877136 -0.14086914 -1.2345886q-1.8310547E-4 -0.890625 0.28100586 -1.3901978q0.28112793 -0.48394775 0.7342529 -0.68640137q0.46868896 -0.2024231 1.937439 -0.20019531l5.578125 0.008392334l-1.8310547E-4 -1.203125l1.265625 0.0018920898l1.8310547E-4 1.203125l2.390625 0.0036010742l0.9846802 1.6264954l-3.375 -0.0050964355l3.0517578E-4 1.65625l-1.265625 -0.0018920898l-3.0517578E-4 -1.65625l-5.671875 -0.008544922q-0.6875 -0.0010375977 -0.890625 0.07678223q-0.20306396 0.093444824 -0.32806396 0.28076172q-0.109313965 0.20297241 -0.10925293 0.5779724q6.1035156E-5 0.265625 0.06262207 0.71884155zm3.375183 1.000885q2.6875 0.0040283203 3.9690552 1.4903259q1.0783081 1.251648 1.0786743 3.048523q3.6621094E-4 2.0 -1.3119507 3.2636414q-1.2966309 1.2636719 -3.6091309 1.2601929q-1.859375 -0.0028076172 -2.937622 -0.56692505q-1.062561 -0.5640869 -1.6564941 -1.6431274q-0.59399414 -1.063385 -0.59417725 -2.32901q-4.272461E-4 -2.03125 1.2962646 -3.2792969q1.3122559 -1.2480164 3.7653809 -1.2443237zm3.0517578E-4 1.6875q-1.859375 -0.0028076172 -2.796753 0.7926636q-0.9216919 0.8110962 -0.92144775 2.0454712q1.8310547E-4 1.21875 0.9222412 2.0326538q0.9376221 0.8139038 2.843872 0.81677246q1.796875 0.0027160645 2.718628 -0.80841064q0.9216919 -0.8111267 0.9215088 -2.0298767q-2.4414062E-4 -1.234375 -0.92230225 -2.0482483q-0.9063721 -0.7982483 -2.765747 -0.8010254zm-4.842041 9.290283l9.671875 0.014556885l2.4414062E-4 1.46875l-1.375 -0.0020751953q1.5939331 1.0649109 1.5942993 3.080536q1.8310547E-4 0.875 -0.31219482 1.6089172q-0.31237793 0.7338867 -0.8279419 1.0924988q-0.49987793 0.37423706 -1.2030029 0.51379395q-0.453125 0.09307861 -1.59375 0.09136963l-5.953125 -0.008972168l-3.0517578E-4 -1.640625l5.890625 0.008880615q1.0 0.0014953613 1.484375 -0.20089722q0.49993896 -0.18673706 0.7967529 -0.6706848q0.29675293 -0.48391724 0.29663086 -1.1401672q-1.8310547E-4 -1.046875 -0.6721802 -1.8135071q-0.6563721 -0.7510071 -2.515747 -0.7537842l-5.28125 -0.007965088l-3.0517578E-4 -1.640625zm0.003112793 17.059021l-3.0517578E-4 -1.515625l13.359375 0.020111084l3.0517578E-4 1.640625l-4.765625 -0.007171631q1.2970581 1.0488281 1.2973633 2.6582031q1.8310547E-4 0.890625 -0.35906982 1.6869507q-0.35925293 0.7963257 -1.0153809 1.3109741q-0.6405029 0.51464844 -1.5623779 0.79452515q-0.92181396 0.2954712 -1.968689 0.2939148q-2.484375 -0.003753662 -3.843933 -1.2401733q-1.3596191 -1.2207947 -1.3599243 -2.9551697q-3.0517578E-4 -1.703125 1.4370117 -2.6853333l-1.21875 -0.0018310547zm4.90625 -0.008239746q-1.734375 -0.0026245117 -2.515564 0.48059082q-1.2655029 0.7637329 -1.2652588 2.091858q2.4414062E-4 1.078125 0.9378662 1.8607788q0.9376221 0.7826538 2.781372 0.7854309q1.890625 0.0028381348 2.796753 -0.7457886q0.9061279 -0.7486572 0.9059448 -1.8267822q-2.4414062E-4 -1.0625 -0.9378662 -1.8607788q-0.9376221 -0.7826538 -2.703247 -0.78530884zm-3.7160034 15.198273q-0.7658081 -0.92303467 -1.0940552 -1.767273q-0.3126831 -0.8286133 -0.3128662 -1.7973633q-2.4414062E-4 -1.59375 0.78082275 -2.4519348q0.7811279 -0.85821533 1.9842529 -0.8563843q0.71875 0.0010681152 1.296936 0.33007812q0.59375 0.32901 0.9376221 0.8451538q0.35949707 0.5317993 0.54711914 1.188324q0.12506104 0.4689331 0.25024414 1.4534912q0.23474121 1.9847412 0.5630493 2.9227295q0.34375 0.016143799 0.421875 0.01626587q1.0 0.0014953613 1.4217529 -0.46661377q0.5467529 -0.624176 0.5465698 -1.874176q-2.4414062E-4 -1.15625 -0.40655518 -1.7037354q-0.40637207 -0.54748535 -1.4220581 -0.81463623l0.21844482 -1.6090698q1.015686 0.22027588 1.6408081 0.7212219q0.64068604 0.50097656 0.98461914 1.4546204q0.3439331 0.9536438 0.3441162 2.1880188q2.4414062E-4 1.25 -0.2965088 2.0151672q-0.2810669 0.78082275 -0.73413086 1.1395264q-0.43743896 0.3743286 -1.109314 0.51394653q-0.42181396 0.07748413 -1.515564 0.07583618l-2.1875 -0.0032653809q-2.28125 -0.0034484863 -2.890625 0.10501099q-0.59375 0.10848999 -1.156189 0.4045105l-3.0517578E-4 -1.703125q0.51556396 -0.26486206 1.187439 -0.32632446zm3.671875 -0.13510132q-0.3751831 -0.89120483 -0.6254883 -2.672821q-0.1408081 -1.0158386 -0.32843018 -1.4379883q-0.18756104 -0.42218018 -0.5313721 -0.657074q-0.34375 -0.21923828 -0.78125 -0.21990967q-0.65625 -9.765625E-4 -1.093689 0.49835205q-0.43737793 0.4993286 -0.43719482 1.4524536q1.2207031E-4 0.9375 0.40655518 1.6724854q0.42199707 0.75064087 1.1408081 1.0954895q0.56256104 0.26644897 1.640686 0.26809692l0.609375 9.1552734E-4zm-4.8586426 4.1808777l9.671875 0.014556885l3.0517578E-4 1.46875l-1.46875 -0.0021972656q1.031311 0.5640259 1.3595581 1.0332947q0.32818604 0.48486328 0.3283081 1.0629883q1.2207031E-4 0.828125 -0.5309448 1.6867065l-1.5157471 -0.5647888q0.35925293 -0.6088257 0.3591919 -1.2025757q-1.2207031E-4 -0.546875 -0.3283081 -0.9692688q-0.32824707 -0.42236328 -0.8907471 -0.6107178q-0.87506104 -0.28256226 -1.921936 -0.28411865l-5.0625 -0.0076293945l-3.0517578E-4 -1.625z" fill-rule="nonzero"/><path fill="#000000" fill-opacity="0.0" d="m398.2362 334.65353l207.4646 0l0 41.921265l-207.4646 0z" fill-rule="evenodd"/><path fill="#000000" d="m418.80447 357.27667l1.65625 -0.140625q0.125 1.0 0.546875 1.640625q0.4375 0.640625 1.34375 1.046875q0.921875 0.390625 2.0625 0.390625q1.0 0 1.78125 -0.296875q0.78125 -0.296875 1.15625 -0.8125q0.375 -0.53125 0.375 -1.15625q0 -0.625 -0.375 -1.09375q-0.359375 -0.46875 -1.1875 -0.796875q-0.546875 -0.203125 -2.390625 -0.640625q-1.828125 -0.453125 -2.5625 -0.84375q-0.96875 -0.5 -1.4375 -1.234375q-0.46875 -0.75 -0.46875 -1.671875q0 -1.0 0.578125 -1.875q0.578125 -0.890625 1.671875 -1.34375q1.109375 -0.453125 2.453125 -0.453125q1.484375 0 2.609375 0.484375q1.140625 0.46875 1.75 1.40625q0.609375 0.921875 0.65625 2.09375l-1.6875 0.125q-0.140625 -1.265625 -0.9375 -1.90625q-0.78125 -0.65625 -2.3125 -0.65625q-1.609375 0 -2.34375 0.59375q-0.734375 0.59375 -0.734375 1.421875q0 0.71875 0.53125 1.171875q0.5 0.46875 2.65625 0.96875q2.15625 0.484375 2.953125 0.84375q1.171875 0.53125 1.71875 1.359375q0.5625 0.828125 0.5625 1.90625q0 1.0625 -0.609375 2.015625q-0.609375 0.9375 -1.75 1.46875q-1.140625 0.515625 -2.578125 0.515625q-1.8125 0 -3.046875 -0.53125q-1.21875 -0.53125 -1.921875 -1.59375q-0.6875 -1.0625 -0.71875 -2.40625zm19.146698 0.75l1.609375 0.21875q-0.265625 1.65625 -1.359375 2.609375q-1.078125 0.9375 -2.671875 0.9375q-1.984375 0 -3.1875 -1.296875q-1.203125 -1.296875 -1.203125 -3.71875q0 -1.578125 0.515625 -2.75q0.515625 -1.171875 1.578125 -1.75q1.0625 -0.59375 2.3125 -0.59375q1.578125 0 2.578125 0.796875q1.0 0.796875 1.28125 2.265625l-1.59375 0.234375q-0.234375 -0.96875 -0.8125 -1.453125q-0.578125 -0.5 -1.390625 -0.5q-1.234375 0 -2.015625 0.890625q-0.78125 0.890625 -0.78125 2.8125q0 1.953125 0.75 2.84375q0.75 0.875 1.953125 0.875q0.96875 0 1.609375 -0.59375q0.65625 -0.59375 0.828125 -1.828125zm3.0 3.546875l0 -9.671875l1.46875 0l0 1.46875q0.5625 -1.03125 1.03125 -1.359375q0.484375 -0.328125 1.0625 -0.328125q0.828125 0 1.6875 0.53125l-0.5625 1.515625q-0.609375 -0.359375 -1.203125 -0.359375q-0.546875 0 -0.96875 0.328125q-0.421875 0.328125 -0.609375 0.890625q-0.28125 0.875 -0.28125 1.921875l0 5.0625l-1.625 0zm12.853302 -3.109375l1.6875 0.203125q-0.40625 1.484375 -1.484375 2.3125q-1.078125 0.8125 -2.765625 0.8125q-2.125 0 -3.375 -1.296875q-1.234375 -1.3125 -1.234375 -3.671875q0 -2.453125 1.25 -3.796875q1.265625 -1.34375 3.265625 -1.34375q1.9375 0 3.15625 1.328125q1.234375 1.3125 1.234375 3.703125q0 0.15625 0 0.4375l-7.21875 0q0.09375 1.59375 0.90625 2.453125q0.8125 0.84375 2.015625 0.84375q0.90625 0 1.546875 -0.46875q0.640625 -0.484375 1.015625 -1.515625zm-5.390625 -2.65625l5.40625 0q-0.109375 -1.21875 -0.625 -1.828125q-0.78125 -0.953125 -2.03125 -0.953125q-1.125 0 -1.90625 0.765625q-0.765625 0.75 -0.84375 2.015625zm15.766327 2.65625l1.6875 0.203125q-0.40625 1.484375 -1.484375 2.3125q-1.078125 0.8125 -2.765625 0.8125q-2.125 0 -3.375 -1.296875q-1.234375 -1.3125 -1.234375 -3.671875q0 -2.453125 1.25 -3.796875q1.265625 -1.34375 3.265625 -1.34375q1.9375 0 3.15625 1.328125q1.234375 1.3125 1.234375 3.703125q0 0.15625 0 0.4375l-7.21875 0q0.09375 1.59375 0.90625 2.453125q0.8125 0.84375 2.015625 0.84375q0.90625 0 1.546875 -0.46875q0.640625 -0.484375 1.015625 -1.515625zm-5.390625 -2.65625l5.40625 0q-0.109375 -1.21875 -0.625 -1.828125q-0.78125 -0.953125 -2.03125 -0.953125q-1.125 0 -1.90625 0.765625q-0.765625 0.75 -0.84375 2.015625zm9.141357 5.765625l0 -9.671875l1.46875 0l0 1.375q1.0625 -1.59375 3.078125 -1.59375q0.875 0 1.609375 0.3125q0.734375 0.3125 1.09375 0.828125q0.375 0.5 0.515625 1.203125q0.09375 0.453125 0.09375 1.59375l0 5.953125l-1.640625 0l0 -5.890625q0 -1.0 -0.203125 -1.484375q-0.1875 -0.5 -0.671875 -0.796875q-0.484375 -0.296875 -1.140625 -0.296875q-1.046875 0 -1.8125 0.671875q-0.75 0.65625 -0.75 2.515625l0 5.28125l-1.640625 0zm21.871521 -3.546875l1.609375 0.21875q-0.265625 1.65625 -1.359375 2.609375q-1.078125 0.9375 -2.671875 0.9375q-1.984375 0 -3.1875 -1.296875q-1.203125 -1.296875 -1.203125 -3.71875q0 -1.578125 0.515625 -2.75q0.515625 -1.171875 1.578125 -1.75q1.0625 -0.59375 2.3125 -0.59375q1.578125 0 2.578125 0.796875q1.0 0.796875 1.28125 2.265625l-1.59375 0.234375q-0.234375 -0.96875 -0.8125 -1.453125q-0.578125 -0.5 -1.390625 -0.5q-1.234375 0 -2.015625 0.890625q-0.78125 0.890625 -0.78125 2.8125q0 1.953125 0.75 2.84375q0.75 0.875 1.953125 0.875q0.96875 0 1.609375 -0.59375q0.65625 -0.59375 0.828125 -1.828125zm2.40625 -1.296875q0 -2.6875 1.484375 -3.96875q1.25 -1.078125 3.046875 -1.078125q2.0 0 3.265625 1.3125q1.265625 1.296875 1.265625 3.609375q0 1.859375 -0.5625 2.9375q-0.5625 1.0625 -1.640625 1.65625q-1.0625 0.59375 -2.328125 0.59375q-2.03125 0 -3.28125 -1.296875q-1.25 -1.3125 -1.25 -3.765625zm1.6875 0q0 1.859375 0.796875 2.796875q0.8125 0.921875 2.046875 0.921875q1.21875 0 2.03125 -0.921875q0.8125 -0.9375 0.8125 -2.84375q0 -1.796875 -0.8125 -2.71875q-0.8125 -0.921875 -2.03125 -0.921875q-1.234375 0 -2.046875 0.921875q-0.796875 0.90625 -0.796875 2.765625zm9.297577 4.84375l0 -9.671875l1.46875 0l0 1.375q1.0625 -1.59375 3.078125 -1.59375q0.875 0 1.609375 0.3125q0.734375 0.3125 1.09375 0.828125q0.375 0.5 0.515625 1.203125q0.09375 0.453125 0.09375 1.59375l0 5.953125l-1.640625 0l0 -5.890625q0 -1.0 -0.203125 -1.484375q-0.1875 -0.5 -0.671875 -0.796875q-0.484375 -0.296875 -1.140625 -0.296875q-1.046875 0 -1.8125 0.671875q-0.75 0.65625 -0.75 2.515625l0 5.28125l-1.640625 0zm13.953827 -1.46875l0.234375 1.453125q-0.6875 0.140625 -1.234375 0.140625q-0.890625 0 -1.390625 -0.28125q-0.484375 -0.28125 -0.6875 -0.734375q-0.203125 -0.46875 -0.203125 -1.9375l0 -5.578125l-1.203125 0l0 -1.265625l1.203125 0l0 -2.390625l1.625 -0.984375l0 3.375l1.65625 0l0 1.265625l-1.65625 0l0 5.671875q0 0.6875 0.078125 0.890625q0.09375 0.203125 0.28125 0.328125q0.203125 0.109375 0.578125 0.109375q0.265625 0 0.71875 -0.0625zm8.230225 -1.640625l1.6875 0.203125q-0.40625 1.484375 -1.484375 2.3125q-1.078125 0.8125 -2.765625 0.8125q-2.125 0 -3.375 -1.296875q-1.234375 -1.3125 -1.234375 -3.671875q0 -2.453125 1.25 -3.796875q1.265625 -1.34375 3.265625 -1.34375q1.9375 0 3.15625 1.328125q1.234375 1.3125 1.234375 3.703125q0 0.15625 0 0.4375l-7.21875 0q0.09375 1.59375 0.90625 2.453125q0.8125 0.84375 2.015625 0.84375q0.90625 0 1.546875 -0.46875q0.640625 -0.484375 1.015625 -1.515625zm-5.390625 -2.65625l5.40625 0q-0.109375 -1.21875 -0.625 -1.828125q-0.78125 -0.953125 -2.03125 -0.953125q-1.125 0 -1.90625 0.765625q-0.765625 0.75 -0.84375 2.015625zm9.141296 5.765625l0 -9.671875l1.46875 0l0 1.375q1.0625 -1.59375 3.078125 -1.59375q0.875 0 1.609375 0.3125q0.734375 0.3125 1.09375 0.828125q0.375 0.5 0.515625 1.203125q0.09375 0.453125 0.09375 1.59375l0 5.953125l-1.640625 0l0 -5.890625q0 -1.0 -0.203125 -1.484375q-0.1875 -0.5 -0.671875 -0.796875q-0.484375 -0.296875 -1.140625 -0.296875q-1.046875 0 -1.8125 0.671875q-0.75 0.65625 -0.75 2.515625l0 5.28125l-1.640625 0zm13.953857 -1.46875l0.234375 1.453125q-0.6875 0.140625 -1.234375 0.140625q-0.890625 0 -1.390625 -0.28125q-0.484375 -0.28125 -0.6875 -0.734375q-0.203125 -0.46875 -0.203125 -1.9375l0 -5.578125l-1.203125 0l0 -1.265625l1.203125 0l0 -2.390625l1.625 -0.984375l0 3.375l1.65625 0l0 1.265625l-1.65625 0l0 5.671875q0 0.6875 0.078125 0.890625q0.09375 0.203125 0.28125 0.328125q0.203125 0.109375 0.578125 0.109375q0.265625 0 0.71875 -0.0625zm13.101013 0.28125q-0.921875 0.765625 -1.765625 1.09375q-0.828125 0.3125 -1.796875 0.3125q-1.59375 0 -2.453125 -0.78125q-0.859375 -0.78125 -0.859375 -1.984375q0 -0.71875 0.328125 -1.296875q0.328125 -0.59375 0.84375 -0.9375q0.53125 -0.359375 1.1875 -0.546875q0.46875 -0.125 1.453125 -0.25q1.984375 -0.234375 2.921875 -0.5625q0.015625 -0.34375 0.015625 -0.421875q0 -1.0 -0.46875 -1.421875q-0.625 -0.546875 -1.875 -0.546875q-1.15625 0 -1.703125 0.40625q-0.546875 0.40625 -0.8125 1.421875l-1.609375 -0.21875q0.21875 -1.015625 0.71875 -1.640625q0.5 -0.640625 1.453125 -0.984375q0.953125 -0.34375 2.1875 -0.34375q1.25 0 2.015625 0.296875q0.78125 0.28125 1.140625 0.734375q0.375 0.4375 0.515625 1.109375q0.078125 0.421875 0.078125 1.515625l0 2.1875q0 2.28125 0.109375 2.890625q0.109375 0.59375 0.40625 1.15625l-1.703125 0q-0.265625 -0.515625 -0.328125 -1.1875zm-0.140625 -3.671875q-0.890625 0.375 -2.671875 0.625q-1.015625 0.140625 -1.4375 0.328125q-0.421875 0.1875 -0.65625 0.53125q-0.21875 0.34375 -0.21875 0.78125q0 0.65625 0.5 1.09375q0.5 0.4375 1.453125 0.4375q0.9375 0 1.671875 -0.40625q0.75 -0.421875 1.09375 -1.140625q0.265625 -0.5625 0.265625 -1.640625l0 -0.609375zm4.1881714 4.859375l0 -9.671875l1.46875 0l0 1.46875q0.5625 -1.03125 1.03125 -1.359375q0.484375 -0.328125 1.0625 -0.328125q0.828125 0 1.6875 0.53125l-0.5625 1.515625q-0.609375 -0.359375 -1.203125 -0.359375q-0.546875 0 -0.96875 0.328125q-0.421875 0.328125 -0.609375 0.890625q-0.28125 0.875 -0.28125 1.921875l0 5.0625l-1.625 0zm12.8533325 -3.109375l1.6875 0.203125q-0.40625 1.484375 -1.484375 2.3125q-1.078125 0.8125 -2.765625 0.8125q-2.125 0 -3.375 -1.296875q-1.234375 -1.3125 -1.234375 -3.671875q0 -2.453125 1.25 -3.796875q1.265625 -1.34375 3.265625 -1.34375q1.9375 0 3.15625 1.328125q1.234375 1.3125 1.234375 3.703125q0 0.15625 0 0.4375l-7.21875 0q0.09375 1.59375 0.90625 2.453125q0.8125 0.84375 2.015625 0.84375q0.90625 0 1.546875 -0.46875q0.640625 -0.484375 1.015625 -1.515625zm-5.390625 -2.65625l5.40625 0q-0.109375 -1.21875 -0.625 -1.828125q-0.78125 -0.953125 -2.03125 -0.953125q-1.125 0 -1.90625 0.765625q-0.765625 0.75 -0.84375 2.015625zm15.453857 4.578125q-0.921875 0.765625 -1.765625 1.09375q-0.828125 0.3125 -1.796875 0.3125q-1.59375 0 -2.453125 -0.78125q-0.859375 -0.78125 -0.859375 -1.984375q0 -0.71875 0.328125 -1.296875q0.328125 -0.59375 0.84375 -0.9375q0.53125 -0.359375 1.1875 -0.546875q0.46875 -0.125 1.453125 -0.25q1.984375 -0.234375 2.921875 -0.5625q0.015625 -0.34375 0.015625 -0.421875q0 -1.0 -0.46875 -1.421875q-0.625 -0.546875 -1.875 -0.546875q-1.15625 0 -1.703125 0.40625q-0.546875 0.40625 -0.8125 1.421875l-1.609375 -0.21875q0.21875 -1.015625 0.71875 -1.640625q0.5 -0.640625 1.453125 -0.984375q0.953125 -0.34375 2.1875 -0.34375q1.25 0 2.015625 0.296875q0.78125 0.28125 1.140625 0.734375q0.375 0.4375 0.515625 1.109375q0.078125 0.421875 0.078125 1.515625l0 2.1875q0 2.28125 0.109375 2.890625q0.109375 0.59375 0.40625 1.15625l-1.703125 0q-0.265625 -0.515625 -0.328125 -1.1875zm-0.140625 -3.671875q-0.890625 0.375 -2.671875 0.625q-1.015625 0.140625 -1.4375 0.328125q-0.421875 0.1875 -0.65625 0.53125q-0.21875 0.34375 -0.21875 0.78125q0 0.65625 0.5 1.09375q0.5 0.4375 1.453125 0.4375q0.9375 0 1.671875 -0.40625q0.75 -0.421875 1.09375 -1.140625q0.265625 -0.5625 0.265625 -1.640625l0 -0.609375z" fill-rule="nonzero"/><path fill="#fff2cc" d="m54.404198 227.59842l0 0c0 -13.559235 10.991943 -24.551178 24.551186 -24.551178l0 0c6.5113754 0 12.756065 2.5866394 17.360306 7.190872c4.6042404 4.604248 7.190872 10.848938 7.190872 17.360306l0 0c0 13.55925 -10.991936 24.551193 -24.551178 24.551193l0 0c-13.559242 0 -24.551186 -10.991943 -24.551186 -24.551193z" fill-rule="evenodd"/><path stroke="#000000" stroke-width="1.0" stroke-linejoin="round" stroke-linecap="butt" d="m54.404198 227.59842l0 0c0 -13.559235 10.991943 -24.551178 24.551186 -24.551178l0 0c6.5113754 0 12.756065 2.5866394 17.360306 7.190872c4.6042404 4.604248 7.190872 10.848938 7.190872 17.360306l0 0c0 13.55925 -10.991936 24.551193 -24.551178 24.551193l0 0c-13.559242 0 -24.551186 -10.991943 -24.551186 -24.551193z" fill-rule="evenodd"/><path fill="#fff2cc" d="m54.404198 354.08398l0 0c0 -13.559235 10.991943 -24.551178 24.551186 -24.551178l0 0c6.5113754 0 12.756065 2.5866394 17.360306 7.1908875c4.6042404 4.6042175 7.190872 10.848907 7.190872 17.36029l0 0c0 13.559235 -10.991936 24.551178 -24.551178 24.551178l0 0c-13.559242 0 -24.551186 -10.991943 -24.551186 -24.551178z" fill-rule="evenodd"/><path stroke="#000000" stroke-width="1.0" stroke-linejoin="round" stroke-linecap="butt" d="m54.404198 354.08398l0 0c0 -13.559235 10.991943 -24.551178 24.551186 -24.551178l0 0c6.5113754 0 12.756065 2.5866394 17.360306 7.1908875c4.6042404 4.6042175 7.190872 10.848907 7.190872 17.36029l0 0c0 13.559235 -10.991936 24.551178 -24.551178 24.551178l0 0c-13.559242 0 -24.551186 -10.991943 -24.551186 -24.551178z" fill-rule="evenodd"/><path fill="#fff2cc" d="m57.4147 490.08398l0 0c0 -13.559235 10.99194 -24.551178 24.551182 -24.551178l0 0c6.5113754 0 12.756065 2.5866394 17.360306 7.1908875c4.6042404 4.6042175 7.190872 10.848907 7.190872 17.36029l0 0c0 13.559235 -10.991936 24.551208 -24.551178 24.551208l0 0c-13.559242 0 -24.551182 -10.991974 -24.551182 -24.551208z" fill-rule="evenodd"/><path stroke="#000000" stroke-width="1.0" stroke-linejoin="round" stroke-linecap="butt" d="m57.4147 490.08398l0 0c0 -13.559235 10.99194 -24.551178 24.551182 -24.551178l0 0c6.5113754 0 12.756065 2.5866394 17.360306 7.1908875c4.6042404 4.6042175 7.190872 10.848907 7.190872 17.36029l0 0c0 13.559235 -10.991936 24.551208 -24.551178 24.551208l0 0c-13.559242 0 -24.551182 -10.991974 -24.551182 -24.551208z" fill-rule="evenodd"/><path fill="#fff2cc" d="m881.4147 226.08398l0 0c0 -13.559235 10.991943 -24.551178 24.551208 -24.551178l0 0c6.5113525 0 12.7560425 2.5866394 17.36029 7.190872c4.604248 4.604248 7.190918 10.848938 7.190918 17.360306l0 0c0 13.55925 -10.991943 24.551193 -24.551208 24.551193l0 0c-13.559265 0 -24.551208 -10.991943 -24.551208 -24.551193z" fill-rule="evenodd"/><path stroke="#000000" stroke-width="1.0" stroke-linejoin="round" stroke-linecap="butt" d="m881.4147 226.08398l0 0c0 -13.559235 10.991943 -24.551178 24.551208 -24.551178l0 0c6.5113525 0 12.7560425 2.5866394 17.36029 7.190872c4.604248 4.604248 7.190918 10.848938 7.190918 17.360306l0 0c0 13.55925 -10.991943 24.551193 -24.551208 24.551193l0 0c-13.559265 0 -24.551208 -10.991943 -24.551208 -24.551193z" fill-rule="evenodd"/><path fill="#fff2cc" d="m881.4147 354.08398l0 0c0 -13.559235 10.991943 -24.551178 24.551208 -24.551178l0 0c6.5113525 0 12.7560425 2.5866394 17.36029 7.1908875c4.604248 4.6042175 7.190918 10.848907 7.190918 17.36029l0 0c0 13.559235 -10.991943 24.551178 -24.551208 24.551178l0 0c-13.559265 0 -24.551208 -10.991943 -24.551208 -24.551178z" fill-rule="evenodd"/><path stroke="#000000" stroke-width="1.0" stroke-linejoin="round" stroke-linecap="butt" d="m881.4147 354.08398l0 0c0 -13.559235 10.991943 -24.551178 24.551208 -24.551178l0 0c6.5113525 0 12.7560425 2.5866394 17.36029 7.1908875c4.604248 4.6042175 7.190918 10.848907 7.190918 17.36029l0 0c0 13.559235 -10.991943 24.551178 -24.551208 24.551178l0 0c-13.559265 0 -24.551208 -10.991943 -24.551208 -24.551178z" fill-rule="evenodd"/><path fill="#fff2cc" d="m881.4147 490.08398l0 0c0 -13.559235 10.991943 -24.551178 24.551208 -24.551178l0 0c6.5113525 0 12.7560425 2.5866394 17.36029 7.1908875c4.604248 4.6042175 7.190918 10.848907 7.190918 17.36029l0 0c0 13.559235 -10.991943 24.551208 -24.551208 24.551208l0 0c-13.559265 0 -24.551208 -10.991974 -24.551208 -24.551208z" fill-rule="evenodd"/><path stroke="#000000" stroke-width="1.0" stroke-linejoin="round" stroke-linecap="butt" d="m881.4147 490.08398l0 0c0 -13.559235 10.991943 -24.551178 24.551208 -24.551178l0 0c6.5113525 0 12.7560425 2.5866394 17.36029 7.1908875c4.604248 4.6042175 7.190918 10.848907 7.190918 17.36029l0 0c0 13.559235 -10.991943 24.551208 -24.551208 24.551208l0 0c-13.559265 0 -24.551208 -10.991974 -24.551208 -24.551208z" fill-rule="evenodd"/></g></svg>