#define monoLogo_width 10
#define monoLogo_height 6
static char monoLogo_bits[] = {
  0xFF, 0x03, 0x01, 0x02, 0x01, 0x02, 0x01, 0x02, 0x01, 0x02, 0xFF, 0x03, 
  };
